<mxfile host="65bd71144e">
    <diagram id="PGciYLwqOyicyOPphFfP" name="Page-1">
        <mxGraphModel dx="8794" dy="5844" grid="1" gridSize="10" guides="1" tooltips="1" connect="1" arrows="1" fold="1" page="1" pageScale="1" pageWidth="850" pageHeight="1100" math="0" shadow="0">
            <root>
                <mxCell id="0"/>
                <mxCell id="1" parent="0"/>
                <mxCell id="32" style="edgeStyle=none;html=1;exitX=1;exitY=0.5;exitDx=0;exitDy=0;entryX=0;entryY=0.5;entryDx=0;entryDy=0;fontSize=24;endArrow=none;endFill=0;strokeWidth=5;" parent="1" source="2" target="31" edge="1">
                    <mxGeometry relative="1" as="geometry"/>
                </mxCell>
                <mxCell id="205" style="edgeStyle=none;html=1;exitX=0.5;exitY=1;exitDx=0;exitDy=0;fontSize=48;fontColor=#0D0D0D;endArrow=none;endFill=0;strokeWidth=5;fillColor=#e51400;strokeColor=#B20000;" parent="1" source="2" edge="1">
                    <mxGeometry relative="1" as="geometry">
                        <mxPoint x="1150" y="1190" as="targetPoint"/>
                    </mxGeometry>
                </mxCell>
                <mxCell id="2" value="&lt;font style=&quot;font-size: 48px&quot;&gt;AWARDS&lt;/font&gt;" style="rounded=0;whiteSpace=wrap;html=1;fillColor=#60a917;fontColor=#ffffff;strokeColor=#2D7600;" parent="1" vertex="1">
                    <mxGeometry x="1025" y="220" width="265" height="120" as="geometry"/>
                </mxCell>

                <mxCell id="112" style="edgeStyle=none;html=1;exitX=1;exitY=0.5;exitDx=0;exitDy=0;fontSize=48;fontColor=#0D0D0D;endArrow=none;endFill=0;strokeWidth=5;fillColor=#e51400;strokeColor=#B20000;" parent="1" source="3" edge="1">
                    <mxGeometry relative="1" as="geometry">
                        <mxPoint x="2380" y="-1790.333333333333" as="targetPoint"/>
                    </mxGeometry>
                </mxCell>
                <mxCell id="3" value="&lt;font style=&quot;font-size: 36px&quot;&gt;ADMIN&lt;/font&gt;" style="rounded=0;whiteSpace=wrap;html=1;fillColor=#60a917;fontColor=#ffffff;strokeColor=#2D7600;" parent="1" vertex="1">
                    <mxGeometry x="1030" y="-1850" width="260" height="120" as="geometry"/>
                </mxCell>
                <mxCell id="33" style="edgeStyle=none;html=1;exitX=0;exitY=0.5;exitDx=0;exitDy=0;entryX=1;entryY=0.5;entryDx=0;entryDy=0;fontSize=24;endArrow=none;endFill=0;strokeWidth=5;" parent="1" source="4" target="31" edge="1">
                    <mxGeometry relative="1" as="geometry"/>
                </mxCell>
                <mxCell id="195" style="edgeStyle=none;html=1;exitX=1;exitY=0.5;exitDx=0;exitDy=0;fontSize=48;fontColor=#0D0D0D;endArrow=none;endFill=0;strokeWidth=5;fillColor=#e51400;strokeColor=#B20000;" parent="1" source="4" edge="1">
                    <mxGeometry relative="1" as="geometry">
                        <mxPoint x="4780" y="940" as="targetPoint"/>
                    </mxGeometry>
                </mxCell>
                <mxCell id="4" value="&lt;font style=&quot;font-size: 48px&quot;&gt;ARTISTS&lt;/font&gt;" style="rounded=0;whiteSpace=wrap;html=1;fillColor=#60a917;fontColor=#ffffff;strokeColor=#2D7600;" parent="1" vertex="1">
                    <mxGeometry x="3660" y="880" width="260" height="120" as="geometry"/>
                </mxCell>
                <mxCell id="141" style="edgeStyle=none;html=1;exitX=0;exitY=0.5;exitDx=0;exitDy=0;fontSize=48;fontColor=#0D0D0D;endArrow=none;endFill=0;strokeWidth=5;fillColor=#e51400;strokeColor=#B20000;" parent="1" source="5" edge="1">
                    <mxGeometry relative="1" as="geometry">
                        <mxPoint x="-3840" y="940" as="targetPoint"/>
                    </mxGeometry>
                </mxCell>
                <mxCell id="5" value="&lt;font style=&quot;font-size: 48px&quot;&gt;FILM&lt;/font&gt;" style="rounded=0;whiteSpace=wrap;html=1;fillColor=#60a917;fontColor=#ffffff;strokeColor=#2D7600;" parent="1" vertex="1">
                    <mxGeometry x="-1650" y="880" width="260" height="120" as="geometry"/>
                </mxCell>
                <mxCell id="226" style="edgeStyle=none;html=1;exitX=0;exitY=0.5;exitDx=0;exitDy=0;fontSize=48;fontColor=#0D0D0D;endArrow=none;endFill=0;strokeWidth=5;fillColor=#e51400;strokeColor=#B20000;" parent="1" source="6" edge="1">
                    <mxGeometry relative="1" as="geometry">
                        <mxPoint x="-1340" y="-990" as="targetPoint"/>
                    </mxGeometry>
                </mxCell>
                <mxCell id="6" value="&lt;font style=&quot;font-size: 36px&quot;&gt;COMMENT&lt;/font&gt;" style="rounded=0;whiteSpace=wrap;html=1;fillColor=#60a917;fontColor=#ffffff;strokeColor=#2D7600;" parent="1" vertex="1">
                    <mxGeometry x="-270" y="-1440" width="220" height="110" as="geometry"/>
                </mxCell>
                <mxCell id="118" style="edgeStyle=none;html=1;exitX=0;exitY=0.5;exitDx=0;exitDy=0;fontSize=48;fontColor=#0D0D0D;endArrow=none;endFill=0;strokeWidth=5;fillColor=#e51400;strokeColor=#B20000;" parent="1" source="9" edge="1">
                    <mxGeometry relative="1" as="geometry">
                        <mxPoint x="-3220" y="-1243.666666666666" as="targetPoint"/>
                    </mxGeometry>
                </mxCell>
                <mxCell id="9" value="&lt;font style=&quot;font-size: 36px&quot;&gt;STARS&lt;/font&gt;" style="rounded=0;whiteSpace=wrap;html=1;fillColor=#60a917;fontColor=#ffffff;strokeColor=#2D7600;" parent="1" vertex="1">
                    <mxGeometry x="-2300" y="-1300" width="260" height="110" as="geometry"/>
                </mxCell>
                <mxCell id="81" style="edgeStyle=none;html=1;exitX=0.5;exitY=1;exitDx=0;exitDy=0;entryX=0;entryY=0;entryDx=0;entryDy=0;fontSize=48;endArrow=none;endFill=0;strokeWidth=5;" parent="1" source="10" target="80" edge="1">
                    <mxGeometry relative="1" as="geometry"/>
                </mxCell>
                <mxCell id="10" value="&lt;font style=&quot;font-size: 36px&quot;&gt;USER&lt;/font&gt;" style="rounded=0;whiteSpace=wrap;html=1;fillColor=#60a917;fontColor=#ffffff;strokeColor=#2D7600;" parent="1" vertex="1">
                    <mxGeometry x="-1450" y="-2350" width="260" height="120" as="geometry"/>
                </mxCell>
                <mxCell id="11" value="&lt;font style=&quot;font-size: 48px&quot;&gt;BAN&lt;/font&gt;" style="rhombus;whiteSpace=wrap;html=1;fontSize=24;fillColor=#647687;fontColor=#ffffff;strokeColor=#314354;" parent="1" vertex="1">
                    <mxGeometry x="-220" y="-2430" width="390" height="250" as="geometry"/>
                </mxCell>
                <mxCell id="17" value="&lt;font style=&quot;font-size: 48px&quot;&gt;Manage&lt;/font&gt;" style="rhombus;whiteSpace=wrap;html=1;fontSize=24;fillColor=#647687;fontColor=#ffffff;strokeColor=#314354;" parent="1" vertex="1">
                    <mxGeometry x="910" y="-720" width="530" height="250" as="geometry"/>
                </mxCell>
                <mxCell id="20" value="" style="shape=link;html=1;fontSize=24;exitX=0.5;exitY=0;exitDx=0;exitDy=0;entryX=0;entryY=1;entryDx=0;entryDy=0;strokeWidth=5;" parent="1" source="5" target="55" edge="1">
                    <mxGeometry width="100" relative="1" as="geometry">
                        <mxPoint x="930" y="50" as="sourcePoint"/>
                        <mxPoint x="1030" y="50" as="targetPoint"/>
                    </mxGeometry>
                </mxCell>
                <mxCell id="21" value="" style="shape=link;html=1;fontSize=24;entryX=0.5;entryY=0;entryDx=0;entryDy=0;exitX=1;exitY=1;exitDx=0;exitDy=0;strokeWidth=5;" parent="1" source="54" target="4" edge="1">
                    <mxGeometry width="100" relative="1" as="geometry">
                        <mxPoint x="1350" y="30" as="sourcePoint"/>
                        <mxPoint x="1450" y="30" as="targetPoint"/>
                    </mxGeometry>
                </mxCell>
                <mxCell id="22" value="&lt;font style=&quot;font-size: 48px&quot;&gt;has&lt;/font&gt;" style="rhombus;whiteSpace=wrap;html=1;fontSize=24;fillColor=#647687;fontColor=#ffffff;strokeColor=#314354;" parent="1" vertex="1">
                    <mxGeometry x="900" y="1580" width="590" height="300" as="geometry"/>
                </mxCell>
                <mxCell id="23" value="" style="shape=link;html=1;fontSize=24;entryX=0;entryY=0.5;entryDx=0;entryDy=0;strokeWidth=5;exitX=1;exitY=0.5;exitDx=0;exitDy=0;" parent="1" source="5" target="22" edge="1">
                    <mxGeometry width="100" relative="1" as="geometry">
                        <mxPoint x="-210" y="400" as="sourcePoint"/>
                        <mxPoint x="870" y="480" as="targetPoint"/>
                    </mxGeometry>
                </mxCell>
                <mxCell id="25" value="" style="endArrow=none;html=1;fontSize=24;exitX=1;exitY=0.5;exitDx=0;exitDy=0;entryX=0.5;entryY=1;entryDx=0;entryDy=0;strokeWidth=5;" parent="1" source="22" target="4" edge="1">
                    <mxGeometry width="50" height="50" relative="1" as="geometry">
                        <mxPoint x="1560" y="540" as="sourcePoint"/>
                        <mxPoint x="1610" y="490" as="targetPoint"/>
                    </mxGeometry>
                </mxCell>
                <mxCell id="30" style="edgeStyle=none;html=1;exitX=1;exitY=0.5;exitDx=0;exitDy=0;entryX=0;entryY=0.5;entryDx=0;entryDy=0;fontSize=24;endArrow=none;endFill=0;strokeWidth=5;" parent="1" source="28" target="2" edge="1">
                    <mxGeometry relative="1" as="geometry"/>
                </mxCell>
                <mxCell id="28" value="&lt;font style=&quot;font-size: 48px&quot;&gt;has&lt;/font&gt;" style="rhombus;whiteSpace=wrap;html=1;fontSize=24;rotation=0;fillColor=#647687;fontColor=#ffffff;strokeColor=#314354;" parent="1" vertex="1">
                    <mxGeometry x="260" y="225" width="400" height="245" as="geometry"/>
                </mxCell>
                <mxCell id="29" value="" style="endArrow=none;html=1;fontSize=24;exitX=1;exitY=0.5;exitDx=0;exitDy=0;entryX=0;entryY=0.5;entryDx=0;entryDy=0;strokeWidth=5;" parent="1" source="5" target="28" edge="1">
                    <mxGeometry width="50" height="50" relative="1" as="geometry">
                        <mxPoint x="560" y="420" as="sourcePoint"/>
                        <mxPoint x="610" y="370" as="targetPoint"/>
                    </mxGeometry>
                </mxCell>
                <mxCell id="31" value="&lt;font style=&quot;font-size: 48px&quot;&gt;has&lt;/font&gt;" style="rhombus;whiteSpace=wrap;html=1;fontSize=24;rotation=0;fillColor=#647687;fontColor=#ffffff;strokeColor=#314354;" parent="1" vertex="1">
                    <mxGeometry x="1810" y="240" width="420" height="300" as="geometry"/>
                </mxCell>
                <mxCell id="34" value="" style="shape=link;html=1;fontSize=24;endArrow=none;endFill=0;exitX=0.5;exitY=1;exitDx=0;exitDy=0;entryX=0.5;entryY=0;entryDx=0;entryDy=0;strokeWidth=5;" parent="1" source="17" target="2" edge="1">
                    <mxGeometry width="100" relative="1" as="geometry">
                        <mxPoint x="1140" y="370" as="sourcePoint"/>
                        <mxPoint x="1160" y="480" as="targetPoint"/>
                    </mxGeometry>
                </mxCell>
                <mxCell id="38" value="&lt;font style=&quot;font-size: 48px&quot;&gt;send&lt;/font&gt;" style="rhombus;whiteSpace=wrap;html=1;fontSize=24;rotation=0;fillColor=#647687;fontColor=#ffffff;strokeColor=#314354;" parent="1" vertex="1">
                    <mxGeometry x="-2010" y="-1850" width="460" height="240" as="geometry"/>
                </mxCell>
                <mxCell id="39" value="" style="endArrow=none;html=1;fontSize=24;exitX=1;exitY=0;exitDx=0;exitDy=0;entryX=0.5;entryY=1;entryDx=0;entryDy=0;strokeWidth=5;" parent="1" source="38" target="10" edge="1">
                    <mxGeometry width="50" height="50" relative="1" as="geometry">
                        <mxPoint x="20" y="-750" as="sourcePoint"/>
                        <mxPoint x="70" y="-800" as="targetPoint"/>
                    </mxGeometry>
                </mxCell>
                <mxCell id="48" style="edgeStyle=none;html=1;exitX=0.5;exitY=1;exitDx=0;exitDy=0;entryX=0.5;entryY=0;entryDx=0;entryDy=0;fontSize=24;endArrow=none;endFill=0;strokeWidth=5;" parent="1" source="46" target="5" edge="1">
                    <mxGeometry relative="1" as="geometry"/>
                </mxCell>
                <mxCell id="46" value="&lt;font style=&quot;font-size: 48px&quot;&gt;has&lt;/font&gt;" style="rhombus;whiteSpace=wrap;html=1;fontSize=24;rotation=0;fillColor=#647687;fontColor=#ffffff;strokeColor=#314354;" parent="1" vertex="1">
                    <mxGeometry x="-780" y="-700" width="450" height="260" as="geometry"/>
                </mxCell>
                <mxCell id="50" style="edgeStyle=none;html=1;exitX=0;exitY=0;exitDx=0;exitDy=0;entryX=0.5;entryY=1;entryDx=0;entryDy=0;fontSize=24;endArrow=none;endFill=0;strokeWidth=5;" parent="1" source="49" target="9" edge="1">
                    <mxGeometry relative="1" as="geometry"/>
                </mxCell>
                <mxCell id="51" style="edgeStyle=none;html=1;exitX=1;exitY=1;exitDx=0;exitDy=0;entryX=0.5;entryY=0;entryDx=0;entryDy=0;fontSize=24;endArrow=none;endFill=0;strokeWidth=5;" parent="1" source="49" target="5" edge="1">
                    <mxGeometry relative="1" as="geometry"/>
                </mxCell>
                <mxCell id="49" value="&lt;font style=&quot;font-size: 48px&quot;&gt;has&lt;/font&gt;" style="rhombus;whiteSpace=wrap;html=1;fontSize=24;rotation=0;fillColor=#647687;fontColor=#ffffff;strokeColor=#314354;" parent="1" vertex="1">
                    <mxGeometry x="-2490" y="-250" width="480" height="260" as="geometry"/>
                </mxCell>
                <mxCell id="52" value="&lt;font style=&quot;font-size: 48px&quot;&gt;ACCEPT&lt;/font&gt;" style="rhombus;whiteSpace=wrap;html=1;fontSize=24;fillColor=#647687;fontColor=#ffffff;strokeColor=#314354;" parent="1" vertex="1">
                    <mxGeometry x="270" y="-1710" width="440" height="270" as="geometry"/>
                </mxCell>
                <mxCell id="54" value="&lt;font style=&quot;font-size: 48px&quot;&gt;Manage&lt;/font&gt;" style="rhombus;whiteSpace=wrap;html=1;fontSize=24;fillColor=#647687;fontColor=#ffffff;strokeColor=#314354;" parent="1" vertex="1">
                    <mxGeometry x="2030" y="-680" width="550" height="320" as="geometry"/>
                </mxCell>
                <mxCell id="55" value="&lt;font style=&quot;font-size: 48px&quot;&gt;Manage&lt;/font&gt;" style="rhombus;whiteSpace=wrap;html=1;fontSize=24;fillColor=#647687;fontColor=#ffffff;strokeColor=#314354;" parent="1" vertex="1">
                    <mxGeometry x="-180" y="-260" width="410" height="260" as="geometry"/>
                </mxCell>
                <mxCell id="64" value="" style="endArrow=none;html=1;fontSize=24;exitX=1;exitY=0.5;exitDx=0;exitDy=0;strokeWidth=5;entryX=0;entryY=0.5;entryDx=0;entryDy=0;" parent="1" source="10" target="11" edge="1">
                    <mxGeometry width="50" height="50" relative="1" as="geometry">
                        <mxPoint x="-820" y="-1785" as="sourcePoint"/>
                        <mxPoint x="-240" y="-1990" as="targetPoint"/>
                    </mxGeometry>
                </mxCell>
                <mxCell id="65" value="" style="endArrow=none;html=1;fontSize=24;entryX=1;entryY=0.5;entryDx=0;entryDy=0;exitX=0;exitY=0.5;exitDx=0;exitDy=0;strokeWidth=5;" parent="1" source="3" target="11" edge="1">
                    <mxGeometry width="50" height="50" relative="1" as="geometry">
                        <mxPoint x="790" y="-1680" as="sourcePoint"/>
                        <mxPoint x="20" y="-1905" as="targetPoint"/>
                    </mxGeometry>
                </mxCell>
                <mxCell id="68" value="" style="shape=link;html=1;fontSize=24;endArrow=none;endFill=0;entryX=0;entryY=1;entryDx=0;entryDy=0;strokeWidth=5;exitX=1;exitY=0.5;exitDx=0;exitDy=0;" parent="1" source="6" target="52" edge="1">
                    <mxGeometry width="100" relative="1" as="geometry">
                        <mxPoint x="50" y="-1090" as="sourcePoint"/>
                        <mxPoint x="412.5" y="-1297.5000000000005" as="targetPoint"/>
                    </mxGeometry>
                </mxCell>
                <mxCell id="69" style="edgeStyle=none;html=1;exitX=1;exitY=1;exitDx=0;exitDy=0;fontSize=24;endArrow=none;endFill=0;strokeWidth=5;entryX=0.5;entryY=0;entryDx=0;entryDy=0;" parent="1" source="80" target="6" edge="1">
                    <mxGeometry relative="1" as="geometry">
                        <mxPoint x="-775" y="-1265.0000000000005" as="sourcePoint"/>
                        <mxPoint x="-320" y="-1100" as="targetPoint"/>
                    </mxGeometry>
                </mxCell>
                <mxCell id="70" value="" style="endArrow=none;html=1;fontSize=24;exitX=1;exitY=0;exitDx=0;exitDy=0;entryX=0.5;entryY=1;entryDx=0;entryDy=0;strokeWidth=5;" parent="1" source="52" target="3" edge="1">
                    <mxGeometry width="50" height="50" relative="1" as="geometry">
                        <mxPoint x="517.5" y="-1352.5" as="sourcePoint"/>
                        <mxPoint x="850" y="-1650" as="targetPoint"/>
                    </mxGeometry>
                </mxCell>
                <mxCell id="71" style="edgeStyle=none;html=1;exitX=0.5;exitY=1;exitDx=0;exitDy=0;entryX=1;entryY=0;entryDx=0;entryDy=0;fontSize=24;endArrow=none;endFill=0;strokeWidth=5;" parent="1" source="3" target="55" edge="1">
                    <mxGeometry relative="1" as="geometry">
                        <mxPoint x="850" y="-1650" as="sourcePoint"/>
                        <mxPoint x="447.5" y="-362.50000000000045" as="targetPoint"/>
                    </mxGeometry>
                </mxCell>
                <mxCell id="72" value="" style="endArrow=none;html=1;fontSize=24;exitX=0.5;exitY=0;exitDx=0;exitDy=0;entryX=0.5;entryY=1;entryDx=0;entryDy=0;strokeWidth=5;" parent="1" source="17" target="3" edge="1">
                    <mxGeometry width="50" height="50" relative="1" as="geometry">
                        <mxPoint x="1165" y="-330.00000000000045" as="sourcePoint"/>
                        <mxPoint x="850" y="-1650" as="targetPoint"/>
                    </mxGeometry>
                </mxCell>
                <mxCell id="73" style="edgeStyle=none;html=1;exitX=0;exitY=0;exitDx=0;exitDy=0;entryX=0.5;entryY=1;entryDx=0;entryDy=0;fontSize=24;endArrow=none;endFill=0;strokeWidth=5;" parent="1" source="54" target="3" edge="1">
                    <mxGeometry relative="1" as="geometry">
                        <mxPoint x="2232.5" y="-292.50000000000045" as="sourcePoint"/>
                        <mxPoint x="850" y="-1650" as="targetPoint"/>
                    </mxGeometry>
                </mxCell>
                <mxCell id="74" value="" style="endArrow=none;html=1;fontSize=24;exitX=0.5;exitY=0;exitDx=0;exitDy=0;entryX=0;entryY=1;entryDx=0;entryDy=0;strokeWidth=5;" parent="1" source="9" target="38" edge="1">
                    <mxGeometry width="50" height="50" relative="1" as="geometry">
                        <mxPoint x="-1260" y="-830.0000000000005" as="sourcePoint"/>
                        <mxPoint x="-985" y="-1265.0000000000005" as="targetPoint"/>
                    </mxGeometry>
                </mxCell>
                <mxCell id="75" style="edgeStyle=none;html=1;exitX=0.5;exitY=1;exitDx=0;exitDy=0;entryX=0.5;entryY=0;entryDx=0;entryDy=0;fontSize=24;endArrow=none;endFill=0;strokeWidth=5;" parent="1" source="6" target="46" edge="1">
                    <mxGeometry relative="1" as="geometry">
                        <mxPoint x="-165" y="-1050.0000000000005" as="sourcePoint"/>
                        <mxPoint x="-205" y="-540.0000000000005" as="targetPoint"/>
                    </mxGeometry>
                </mxCell>
                <mxCell id="80" value="&lt;font style=&quot;font-size: 48px&quot;&gt;send&lt;/font&gt;" style="rhombus;whiteSpace=wrap;html=1;fontSize=24;rotation=0;fillColor=#647687;fontColor=#ffffff;strokeColor=#314354;" parent="1" vertex="1">
                    <mxGeometry x="-1100" y="-1880" width="390" height="230" as="geometry"/>
                </mxCell>
                <mxCell id="82" value="" style="endArrow=none;html=1;fontSize=48;strokeWidth=5;entryX=0;entryY=0;entryDx=0;entryDy=0;fillColor=#fa6800;strokeColor=#C73500;" parent="1" target="10" edge="1">
                    <mxGeometry width="50" height="50" relative="1" as="geometry">
                        <mxPoint x="-2190" y="-3060" as="sourcePoint"/>
                        <mxPoint x="-1470" y="-2370" as="targetPoint"/>
                    </mxGeometry>
                </mxCell>
                <mxCell id="95" style="edgeStyle=none;html=1;exitX=0;exitY=0.5;exitDx=0;exitDy=0;fontSize=48;endArrow=none;endFill=0;strokeWidth=5;fillColor=#e51400;strokeColor=#B20000;" parent="1" source="83" edge="1">
                    <mxGeometry relative="1" as="geometry">
                        <mxPoint x="-2110" y="-3000" as="targetPoint"/>
                    </mxGeometry>
                </mxCell>
                <mxCell id="83" value="ID" style="ellipse;whiteSpace=wrap;html=1;fontSize=48;fillColor=#f8cecc;gradientColor=#ea6b66;strokeColor=#b85450;" parent="1" vertex="1">
                    <mxGeometry x="-1930" y="-3260" width="260" height="150" as="geometry"/>
                </mxCell>
                <mxCell id="94" style="edgeStyle=none;html=1;exitX=0;exitY=0.5;exitDx=0;exitDy=0;fontSize=48;endArrow=none;endFill=0;strokeWidth=5;fillColor=#e51400;strokeColor=#B20000;" parent="1" source="84" edge="1">
                    <mxGeometry relative="1" as="geometry">
                        <mxPoint x="-1940" y="-2830" as="targetPoint"/>
                    </mxGeometry>
                </mxCell>
                <mxCell id="84" value="&lt;font color=&quot;#000000&quot;&gt;EMAIL&lt;/font&gt;" style="ellipse;whiteSpace=wrap;html=1;fontSize=48;fillColor=#fff2cc;gradientColor=#ffd966;strokeColor=#d6b656;" parent="1" vertex="1">
                    <mxGeometry x="-1750" y="-3100" width="260" height="150" as="geometry"/>
                </mxCell>
                <mxCell id="93" style="edgeStyle=none;html=1;exitX=0;exitY=0.5;exitDx=0;exitDy=0;fontSize=48;endArrow=none;endFill=0;strokeWidth=5;fillColor=#e51400;strokeColor=#B20000;" parent="1" source="85" edge="1">
                    <mxGeometry relative="1" as="geometry">
                        <mxPoint x="-1790" y="-2680" as="targetPoint"/>
                    </mxGeometry>
                </mxCell>
                <mxCell id="85" value="&lt;font color=&quot;#0f0f0f&quot;&gt;PASSWORD&lt;/font&gt;" style="ellipse;whiteSpace=wrap;html=1;fontSize=48;fillColor=#d5e8d4;gradientColor=#97d077;strokeColor=#82b366;" parent="1" vertex="1">
                    <mxGeometry x="-1600" y="-2950" width="330" height="150" as="geometry"/>
                </mxCell>
                <mxCell id="89" style="edgeStyle=none;html=1;exitX=1;exitY=0.5;exitDx=0;exitDy=0;fontSize=48;endArrow=none;endFill=0;strokeWidth=5;fillColor=#e51400;strokeColor=#B20000;" parent="1" source="86" edge="1">
                    <mxGeometry relative="1" as="geometry">
                        <mxPoint x="-2000" y="-2880" as="targetPoint"/>
                    </mxGeometry>
                </mxCell>
                <mxCell id="86" value="&lt;font color=&quot;#000000&quot;&gt;USERNAME&lt;/font&gt;" style="ellipse;whiteSpace=wrap;html=1;fontSize=48;fillColor=#d5e8d4;gradientColor=#97d077;strokeColor=#82b366;" parent="1" vertex="1">
                    <mxGeometry x="-2510" y="-2810" width="310" height="150" as="geometry"/>
                </mxCell>
                <mxCell id="91" style="edgeStyle=none;html=1;exitX=1;exitY=0.5;exitDx=0;exitDy=0;fontSize=48;endArrow=none;endFill=0;strokeWidth=5;fillColor=#e51400;strokeColor=#B20000;" parent="1" source="87" edge="1">
                    <mxGeometry relative="1" as="geometry">
                        <mxPoint x="-1860" y="-2740" as="targetPoint"/>
                    </mxGeometry>
                </mxCell>
                <mxCell id="87" value="&lt;font color=&quot;#0d0d0d&quot;&gt;NAME&lt;/font&gt;" style="ellipse;whiteSpace=wrap;html=1;fontSize=48;fillColor=#d5e8d4;gradientColor=#97d077;strokeColor=#82b366;" parent="1" vertex="1">
                    <mxGeometry x="-2300" y="-2660" width="260" height="150" as="geometry"/>
                </mxCell>
                <mxCell id="92" style="edgeStyle=none;html=1;exitX=1;exitY=0.5;exitDx=0;exitDy=0;fontSize=48;endArrow=none;endFill=0;strokeWidth=5;fillColor=#e51400;strokeColor=#B20000;" parent="1" source="88" edge="1">
                    <mxGeometry relative="1" as="geometry">
                        <mxPoint x="-1690" y="-2590" as="targetPoint"/>
                    </mxGeometry>
                </mxCell>
                <mxCell id="88" value="&lt;font color=&quot;#0d0d0d&quot;&gt;AVATAR&lt;/font&gt;" style="ellipse;whiteSpace=wrap;html=1;fontSize=48;fillColor=#d5e8d4;gradientColor=#97d077;strokeColor=#82b366;" parent="1" vertex="1">
                    <mxGeometry x="-2130" y="-2500" width="260" height="150" as="geometry"/>
                </mxCell>
                <mxCell id="96" value="&lt;font color=&quot;#000000&quot;&gt;USERNAME&lt;/font&gt;" style="ellipse;whiteSpace=wrap;html=1;fontSize=48;fillColor=#fff2cc;gradientColor=#ffd966;strokeColor=#d6b656;" parent="1" vertex="1">
                    <mxGeometry x="-2510" y="-2810" width="310" height="150" as="geometry"/>
                </mxCell>
                <mxCell id="113" style="edgeStyle=none;html=1;exitX=0.5;exitY=1;exitDx=0;exitDy=0;fontSize=48;fontColor=#0D0D0D;endArrow=none;endFill=0;strokeWidth=5;fillColor=#e51400;strokeColor=#B20000;" parent="1" source="99" edge="1">
                    <mxGeometry relative="1" as="geometry">
                        <mxPoint x="1579.666666666667" y="-1790" as="targetPoint"/>
                    </mxGeometry>
                </mxCell>
                <mxCell id="99" value="ID" style="ellipse;whiteSpace=wrap;html=1;fontSize=48;fillColor=#f8cecc;gradientColor=#ea6b66;strokeColor=#b85450;" parent="1" vertex="1">
                    <mxGeometry x="1450" y="-2160" width="260" height="150" as="geometry"/>
                </mxCell>
                <mxCell id="114" style="edgeStyle=none;html=1;exitX=0.5;exitY=1;exitDx=0;exitDy=0;fontSize=48;fontColor=#0D0D0D;endArrow=none;endFill=0;strokeWidth=5;fillColor=#e51400;strokeColor=#B20000;" parent="1" source="101" edge="1">
                    <mxGeometry relative="1" as="geometry">
                        <mxPoint x="1909.6666666666679" y="-1800" as="targetPoint"/>
                    </mxGeometry>
                </mxCell>
                <mxCell id="101" value="&lt;font color=&quot;#000000&quot;&gt;EMAIL&lt;/font&gt;" style="ellipse;whiteSpace=wrap;html=1;fontSize=48;fillColor=#fff2cc;gradientColor=#ffd966;strokeColor=#d6b656;" parent="1" vertex="1">
                    <mxGeometry x="1780" y="-2160" width="260" height="150" as="geometry"/>
                </mxCell>
                <mxCell id="115" style="edgeStyle=none;html=1;exitX=0.5;exitY=1;exitDx=0;exitDy=0;fontSize=48;fontColor=#0D0D0D;endArrow=none;endFill=0;strokeWidth=5;fillColor=#e51400;strokeColor=#B20000;" parent="1" source="103" edge="1">
                    <mxGeometry relative="1" as="geometry">
                        <mxPoint x="2266.333333333334" y="-1800" as="targetPoint"/>
                    </mxGeometry>
                </mxCell>
                <mxCell id="103" value="&lt;font color=&quot;#0f0f0f&quot;&gt;PASSWORD&lt;/font&gt;" style="ellipse;whiteSpace=wrap;html=1;fontSize=48;fillColor=#d5e8d4;gradientColor=#97d077;strokeColor=#82b366;" parent="1" vertex="1">
                    <mxGeometry x="2100" y="-2150" width="330" height="150" as="geometry"/>
                </mxCell>
                <mxCell id="116" style="edgeStyle=none;html=1;exitX=0.5;exitY=0;exitDx=0;exitDy=0;fontSize=48;fontColor=#0D0D0D;endArrow=none;endFill=0;strokeWidth=5;fillColor=#e51400;strokeColor=#B20000;" parent="1" source="107" edge="1">
                    <mxGeometry relative="1" as="geometry">
                        <mxPoint x="1740" y="-1790" as="targetPoint"/>
                    </mxGeometry>
                </mxCell>
                <mxCell id="107" value="&lt;font color=&quot;#0d0d0d&quot;&gt;NAME&lt;/font&gt;" style="ellipse;whiteSpace=wrap;html=1;fontSize=48;fillColor=#d5e8d4;gradientColor=#97d077;strokeColor=#82b366;" parent="1" vertex="1">
                    <mxGeometry x="1610" y="-1727" width="260" height="150" as="geometry"/>
                </mxCell>
                <mxCell id="117" style="edgeStyle=none;html=1;exitX=0.5;exitY=0;exitDx=0;exitDy=0;fontSize=48;fontColor=#0D0D0D;endArrow=none;endFill=0;strokeWidth=5;fillColor=#e51400;strokeColor=#B20000;" parent="1" source="109" edge="1">
                    <mxGeometry relative="1" as="geometry">
                        <mxPoint x="2079.666666666668" y="-1790" as="targetPoint"/>
                    </mxGeometry>
                </mxCell>
                <mxCell id="109" value="&lt;font color=&quot;#0d0d0d&quot;&gt;AVATAR&lt;/font&gt;" style="ellipse;whiteSpace=wrap;html=1;fontSize=48;fillColor=#d5e8d4;gradientColor=#97d077;strokeColor=#82b366;" parent="1" vertex="1">
                    <mxGeometry x="1950" y="-1740" width="260" height="150" as="geometry"/>
                </mxCell>
                <mxCell id="133" style="edgeStyle=none;html=1;exitX=0.5;exitY=1;exitDx=0;exitDy=0;fontSize=48;fontColor=#0D0D0D;endArrow=none;endFill=0;strokeWidth=5;fillColor=#e51400;strokeColor=#B20000;" parent="1" source="121" edge="1">
                    <mxGeometry relative="1" as="geometry">
                        <mxPoint x="-3103.6666666666665" y="-1250" as="targetPoint"/>
                    </mxGeometry>
                </mxCell>
                <mxCell id="121" value="ID" style="ellipse;whiteSpace=wrap;html=1;fontSize=48;fillColor=#f8cecc;gradientColor=#ea6b66;strokeColor=#b85450;" parent="1" vertex="1">
                    <mxGeometry x="-3235" y="-1580" width="260" height="150" as="geometry"/>
                </mxCell>
                <mxCell id="134" style="edgeStyle=none;html=1;exitX=0.5;exitY=0;exitDx=0;exitDy=0;fontSize=48;fontColor=#0D0D0D;endArrow=none;endFill=0;strokeWidth=5;fillColor=#e51400;strokeColor=#B20000;" parent="1" source="123" edge="1">
                    <mxGeometry relative="1" as="geometry">
                        <mxPoint x="-2990" y="-1240" as="targetPoint"/>
                    </mxGeometry>
                </mxCell>
                <mxCell id="123" value="&lt;font color=&quot;#000000&quot;&gt;User_ID&lt;/font&gt;" style="ellipse;whiteSpace=wrap;html=1;fontSize=48;fillColor=#dae8fc;gradientColor=#7ea6e0;strokeColor=#6c8ebf;" parent="1" vertex="1">
                    <mxGeometry x="-3120" y="-1150" width="260" height="150" as="geometry"/>
                </mxCell>
                <mxCell id="136" style="edgeStyle=none;html=1;exitX=0.5;exitY=0;exitDx=0;exitDy=0;fontSize=48;fontColor=#0D0D0D;endArrow=none;endFill=0;strokeWidth=5;fillColor=#e51400;strokeColor=#B20000;" parent="1" source="129" edge="1">
                    <mxGeometry relative="1" as="geometry">
                        <mxPoint x="-2700" y="-1250" as="targetPoint"/>
                    </mxGeometry>
                </mxCell>
                <mxCell id="129" value="&lt;font color=&quot;#0d0d0d&quot;&gt;Movie_ID&lt;/font&gt;" style="ellipse;whiteSpace=wrap;html=1;fontSize=48;fillColor=#dae8fc;gradientColor=#7ea6e0;strokeColor=#6c8ebf;" parent="1" vertex="1">
                    <mxGeometry x="-2830" y="-1140" width="260" height="150" as="geometry"/>
                </mxCell>
                <mxCell id="135" style="edgeStyle=none;html=1;exitX=0.5;exitY=1;exitDx=0;exitDy=0;fontSize=48;fontColor=#0D0D0D;endArrow=none;endFill=0;strokeWidth=5;fillColor=#e51400;strokeColor=#B20000;" parent="1" source="131" edge="1">
                    <mxGeometry relative="1" as="geometry">
                        <mxPoint x="-2830.333333333333" y="-1250" as="targetPoint"/>
                    </mxGeometry>
                </mxCell>
                <mxCell id="131" value="&lt;font color=&quot;#0d0d0d&quot;&gt;Rating&lt;/font&gt;" style="ellipse;whiteSpace=wrap;html=1;fontSize=48;fillColor=#d5e8d4;gradientColor=#97d077;strokeColor=#82b366;" parent="1" vertex="1">
                    <mxGeometry x="-2960" y="-1580" width="260" height="150" as="geometry"/>
                </mxCell>
                <mxCell id="160" style="edgeStyle=none;html=1;exitX=0.5;exitY=1;exitDx=0;exitDy=0;fontSize=48;fontColor=#0D0D0D;endArrow=none;endFill=0;strokeWidth=5;fillColor=#e51400;strokeColor=#B20000;" parent="1" source="148" edge="1">
                    <mxGeometry relative="1" as="geometry">
                        <mxPoint x="-3600" y="940" as="targetPoint"/>
                    </mxGeometry>
                </mxCell>
                <mxCell id="148" value="ID" style="ellipse;whiteSpace=wrap;html=1;fontSize=48;fillColor=#f8cecc;gradientColor=#ea6b66;strokeColor=#b85450;" parent="1" vertex="1">
                    <mxGeometry x="-3740" y="690" width="260" height="150" as="geometry"/>
                </mxCell>
                <mxCell id="162" style="edgeStyle=none;html=1;exitX=0.5;exitY=1;exitDx=0;exitDy=0;fontSize=48;fontColor=#0D0D0D;endArrow=none;endFill=0;strokeWidth=5;fillColor=#e51400;strokeColor=#B20000;" parent="1" source="149" edge="1">
                    <mxGeometry relative="1" as="geometry">
                        <mxPoint x="-3320" y="940" as="targetPoint"/>
                    </mxGeometry>
                </mxCell>
                <mxCell id="149" value="&lt;font color=&quot;#0d0d0d&quot;&gt;TYPE&lt;/font&gt;" style="ellipse;whiteSpace=wrap;html=1;fontSize=48;fillColor=#d5e8d4;gradientColor=#97d077;strokeColor=#82b366;" parent="1" vertex="1">
                    <mxGeometry x="-3410" y="680" width="260" height="150" as="geometry"/>
                </mxCell>
                <mxCell id="170" style="edgeStyle=none;html=1;exitX=0.5;exitY=1;exitDx=0;exitDy=0;fontSize=48;fontColor=#0D0D0D;endArrow=none;endFill=0;strokeWidth=5;fillColor=#e51400;strokeColor=#B20000;" parent="1" source="150" edge="1">
                    <mxGeometry relative="1" as="geometry">
                        <mxPoint x="-2000" y="930" as="targetPoint"/>
                    </mxGeometry>
                </mxCell>
                <mxCell id="150" value="&lt;font color=&quot;#0d0d0d&quot;&gt;YEAR&lt;/font&gt;" style="ellipse;whiteSpace=wrap;html=1;fontSize=48;fillColor=#d5e8d4;gradientColor=#97d077;strokeColor=#82b366;" parent="1" vertex="1">
                    <mxGeometry x="-2031" y="690" width="260" height="150" as="geometry"/>
                </mxCell>
                <mxCell id="168" style="edgeStyle=none;html=1;exitX=0.5;exitY=1;exitDx=0;exitDy=0;fontSize=48;fontColor=#0D0D0D;endArrow=none;endFill=0;strokeWidth=5;fillColor=#e51400;strokeColor=#B20000;" parent="1" source="151" edge="1">
                    <mxGeometry relative="1" as="geometry">
                        <mxPoint x="-2440" y="930" as="targetPoint"/>
                    </mxGeometry>
                </mxCell>
                <mxCell id="151" value="&lt;font color=&quot;#0d0d0d&quot;&gt;DECSCRIPTION&lt;/font&gt;" style="ellipse;whiteSpace=wrap;html=1;fontSize=48;fillColor=#d5e8d4;gradientColor=#97d077;strokeColor=#82b366;" parent="1" vertex="1">
                    <mxGeometry x="-2491" y="685" width="420" height="150" as="geometry"/>
                </mxCell>
                <mxCell id="166" style="edgeStyle=none;html=1;exitX=0.5;exitY=1;exitDx=0;exitDy=0;fontSize=48;fontColor=#0D0D0D;endArrow=none;endFill=0;strokeWidth=5;fillColor=#e51400;strokeColor=#B20000;" parent="1" source="152" edge="1">
                    <mxGeometry relative="1" as="geometry">
                        <mxPoint x="-2730" y="930" as="targetPoint"/>
                    </mxGeometry>
                </mxCell>
                <mxCell id="152" value="&lt;font color=&quot;#0d0d0d&quot;&gt;COVER&lt;/font&gt;" style="ellipse;whiteSpace=wrap;html=1;fontSize=48;fillColor=#d5e8d4;gradientColor=#97d077;strokeColor=#82b366;" parent="1" vertex="1">
                    <mxGeometry x="-2797" y="682" width="260" height="150" as="geometry"/>
                </mxCell>
                <mxCell id="164" style="edgeStyle=none;html=1;exitX=0.5;exitY=1;exitDx=0;exitDy=0;fontSize=48;fontColor=#0D0D0D;endArrow=none;endFill=0;strokeWidth=5;fillColor=#e51400;strokeColor=#B20000;" parent="1" source="153" edge="1">
                    <mxGeometry relative="1" as="geometry">
                        <mxPoint x="-3030" y="930" as="targetPoint"/>
                    </mxGeometry>
                </mxCell>
                <mxCell id="153" value="&lt;font color=&quot;#0d0d0d&quot;&gt;NAME&lt;/font&gt;" style="ellipse;whiteSpace=wrap;html=1;fontSize=48;fillColor=#d5e8d4;gradientColor=#97d077;strokeColor=#82b366;" parent="1" vertex="1">
                    <mxGeometry x="-3090" y="679" width="260" height="150" as="geometry"/>
                </mxCell>
                <mxCell id="169" style="edgeStyle=none;html=1;exitX=0.5;exitY=0;exitDx=0;exitDy=0;fontSize=48;fontColor=#0D0D0D;endArrow=none;endFill=0;strokeWidth=5;fillColor=#e51400;strokeColor=#B20000;" parent="1" source="154" edge="1">
                    <mxGeometry relative="1" as="geometry">
                        <mxPoint x="-2330" y="940" as="targetPoint"/>
                    </mxGeometry>
                </mxCell>
                <mxCell id="154" value="&lt;font color=&quot;#0d0d0d&quot;&gt;AVERAGE&lt;/font&gt;" style="ellipse;whiteSpace=wrap;html=1;fontSize=48;fillColor=#d5e8d4;gradientColor=#97d077;strokeColor=#82b366;" parent="1" vertex="1">
                    <mxGeometry x="-2374" y="1055" width="260" height="150" as="geometry"/>
                </mxCell>
                <mxCell id="167" style="edgeStyle=none;html=1;exitX=0.5;exitY=0;exitDx=0;exitDy=0;fontSize=48;fontColor=#0D0D0D;endArrow=none;endFill=0;strokeWidth=5;fillColor=#e51400;strokeColor=#B20000;" parent="1" source="155" edge="1">
                    <mxGeometry relative="1" as="geometry">
                        <mxPoint x="-2610" y="940" as="targetPoint"/>
                    </mxGeometry>
                </mxCell>
                <mxCell id="155" value="&lt;font color=&quot;#0d0d0d&quot;&gt;COUNTRY&lt;/font&gt;" style="ellipse;whiteSpace=wrap;html=1;fontSize=48;fillColor=#d5e8d4;gradientColor=#97d077;strokeColor=#82b366;" parent="1" vertex="1">
                    <mxGeometry x="-2654" y="1060" width="260" height="150" as="geometry"/>
                </mxCell>
                <mxCell id="165" style="edgeStyle=none;html=1;exitX=0.5;exitY=0;exitDx=0;exitDy=0;fontSize=48;fontColor=#0D0D0D;endArrow=none;endFill=0;strokeWidth=5;fillColor=#e51400;strokeColor=#B20000;" parent="1" source="156" edge="1">
                    <mxGeometry relative="1" as="geometry">
                        <mxPoint x="-2890" y="940" as="targetPoint"/>
                    </mxGeometry>
                </mxCell>
                <mxCell id="156" value="&lt;font color=&quot;#0d0d0d&quot;&gt;DATE_PUB&lt;/font&gt;" style="ellipse;whiteSpace=wrap;html=1;fontSize=48;fillColor=#d5e8d4;gradientColor=#97d077;strokeColor=#82b366;" parent="1" vertex="1">
                    <mxGeometry x="-2950" y="1060" width="260" height="150" as="geometry"/>
                </mxCell>
                <mxCell id="163" style="edgeStyle=none;html=1;exitX=0.5;exitY=0;exitDx=0;exitDy=0;fontSize=48;fontColor=#0D0D0D;endArrow=none;endFill=0;strokeWidth=5;fillColor=#e51400;strokeColor=#B20000;" parent="1" source="157" edge="1">
                    <mxGeometry relative="1" as="geometry">
                        <mxPoint x="-3180" y="940" as="targetPoint"/>
                    </mxGeometry>
                </mxCell>
                <mxCell id="157" value="&lt;font color=&quot;#0d0d0d&quot;&gt;COMPANY&lt;/font&gt;" style="ellipse;whiteSpace=wrap;html=1;fontSize=48;fillColor=#d5e8d4;gradientColor=#97d077;strokeColor=#82b366;" parent="1" vertex="1">
                    <mxGeometry x="-3260" y="1060" width="260" height="150" as="geometry"/>
                </mxCell>
                <mxCell id="161" style="edgeStyle=none;html=1;exitX=0.5;exitY=0;exitDx=0;exitDy=0;fontSize=48;fontColor=#0D0D0D;endArrow=none;endFill=0;strokeWidth=5;fillColor=#e51400;strokeColor=#B20000;" parent="1" source="158" edge="1">
                    <mxGeometry relative="1" as="geometry">
                        <mxPoint x="-3530" y="940" as="targetPoint"/>
                    </mxGeometry>
                </mxCell>
                <mxCell id="158" value="&lt;font color=&quot;#0d0d0d&quot;&gt;CONTENT_RATING&lt;/font&gt;" style="ellipse;whiteSpace=wrap;html=1;fontSize=48;fillColor=#d5e8d4;gradientColor=#97d077;strokeColor=#82b366;" parent="1" vertex="1">
                    <mxGeometry x="-3830" y="1060" width="520" height="150" as="geometry"/>
                </mxCell>
                <mxCell id="171" style="edgeStyle=none;html=1;exitX=0.5;exitY=0;exitDx=0;exitDy=0;fontSize=48;fontColor=#0D0D0D;endArrow=none;endFill=0;strokeWidth=5;fillColor=#e51400;strokeColor=#B20000;" parent="1" source="159" edge="1">
                    <mxGeometry relative="1" as="geometry">
                        <mxPoint x="-2130" y="940" as="targetPoint"/>
                    </mxGeometry>
                </mxCell>
                <mxCell id="159" value="&lt;font color=&quot;#0d0d0d&quot;&gt;Comment&lt;br&gt;count&lt;br&gt;&lt;/font&gt;" style="ellipse;whiteSpace=wrap;html=1;fontSize=48;fillColor=#d5e8d4;gradientColor=#97d077;strokeColor=#82b366;" parent="1" vertex="1">
                    <mxGeometry x="-2070" y="1050" width="260" height="150" as="geometry"/>
                </mxCell>
                <mxCell id="172" style="edgeStyle=none;html=1;exitX=0.5;exitY=1;exitDx=0;exitDy=0;fontSize=48;fontColor=#0D0D0D;endArrow=none;endFill=0;strokeWidth=5;fillColor=#e51400;strokeColor=#B20000;" parent="1" source="173" edge="1">
                    <mxGeometry relative="1" as="geometry">
                        <mxPoint x="4700" y="940" as="targetPoint"/>
                    </mxGeometry>
                </mxCell>
                <mxCell id="173" value="ID" style="ellipse;whiteSpace=wrap;html=1;fontSize=48;fillColor=#f8cecc;gradientColor=#ea6b66;strokeColor=#b85450;" parent="1" vertex="1">
                    <mxGeometry x="4580" y="650" width="260" height="150" as="geometry"/>
                </mxCell>
                <mxCell id="197" style="edgeStyle=none;html=1;exitX=0.5;exitY=0;exitDx=0;exitDy=0;fontSize=48;fontColor=#0D0D0D;endArrow=none;endFill=0;strokeWidth=5;fillColor=#e51400;strokeColor=#B20000;" parent="1" source="175" edge="1">
                    <mxGeometry relative="1" as="geometry">
                        <mxPoint x="4050" y="940" as="targetPoint"/>
                    </mxGeometry>
                </mxCell>
                <mxCell id="175" value="&lt;font color=&quot;#0d0d0d&quot;&gt;Bio&lt;/font&gt;" style="ellipse;whiteSpace=wrap;html=1;fontSize=48;fillColor=#d5e8d4;gradientColor=#97d077;strokeColor=#82b366;" parent="1" vertex="1">
                    <mxGeometry x="3930" y="1055" width="260" height="150" as="geometry"/>
                </mxCell>
                <mxCell id="179" style="edgeStyle=none;html=1;exitX=0.5;exitY=1;exitDx=0;exitDy=0;fontSize=48;fontColor=#0D0D0D;endArrow=none;endFill=0;strokeWidth=5;fillColor=#e51400;strokeColor=#B20000;" parent="1" source="180" edge="1">
                    <mxGeometry relative="1" as="geometry">
                        <mxPoint x="4140" y="940" as="targetPoint"/>
                    </mxGeometry>
                </mxCell>
                <mxCell id="180" value="&lt;font color=&quot;#0d0d0d&quot;&gt;AVATAR&lt;/font&gt;" style="ellipse;whiteSpace=wrap;html=1;fontSize=48;fillColor=#d5e8d4;gradientColor=#97d077;strokeColor=#82b366;" parent="1" vertex="1">
                    <mxGeometry x="4010" y="660" width="260" height="150" as="geometry"/>
                </mxCell>
                <mxCell id="181" style="edgeStyle=none;html=1;exitX=0.5;exitY=1;exitDx=0;exitDy=0;fontSize=48;fontColor=#0D0D0D;endArrow=none;endFill=0;strokeWidth=5;fillColor=#e51400;strokeColor=#B20000;" parent="1" source="182" edge="1">
                    <mxGeometry relative="1" as="geometry">
                        <mxPoint x="4430" y="930" as="targetPoint"/>
                    </mxGeometry>
                </mxCell>
                <mxCell id="182" value="&lt;font color=&quot;#0d0d0d&quot;&gt;NAME&lt;/font&gt;" style="ellipse;whiteSpace=wrap;html=1;fontSize=48;fillColor=#d5e8d4;gradientColor=#97d077;strokeColor=#82b366;" parent="1" vertex="1">
                    <mxGeometry x="4300" y="660" width="260" height="150" as="geometry"/>
                </mxCell>
                <mxCell id="187" style="edgeStyle=none;html=1;exitX=0.5;exitY=0;exitDx=0;exitDy=0;fontSize=48;fontColor=#0D0D0D;endArrow=none;endFill=0;strokeWidth=5;fillColor=#e51400;strokeColor=#B20000;" parent="1" source="188" edge="1">
                    <mxGeometry relative="1" as="geometry">
                        <mxPoint x="4650" y="940" as="targetPoint"/>
                    </mxGeometry>
                </mxCell>
                <mxCell id="188" value="&lt;font color=&quot;#0d0d0d&quot;&gt;Award&lt;br&gt;count&lt;br&gt;&lt;/font&gt;" style="ellipse;whiteSpace=wrap;html=1;fontSize=48;fillColor=#d5e8d4;gradientColor=#97d077;strokeColor=#82b366;" parent="1" vertex="1">
                    <mxGeometry x="4540" y="1050" width="260" height="150" as="geometry"/>
                </mxCell>
                <mxCell id="196" style="edgeStyle=none;html=1;exitX=0.5;exitY=0;exitDx=0;exitDy=0;fontSize=48;fontColor=#0D0D0D;endArrow=none;endFill=0;strokeWidth=5;fillColor=#e51400;strokeColor=#B20000;" parent="1" source="190" edge="1">
                    <mxGeometry relative="1" as="geometry">
                        <mxPoint x="4360" y="940" as="targetPoint"/>
                    </mxGeometry>
                </mxCell>
                <mxCell id="190" value="&lt;font color=&quot;#0d0d0d&quot;&gt;role&lt;/font&gt;" style="ellipse;whiteSpace=wrap;html=1;fontSize=48;fillColor=#d5e8d4;gradientColor=#97d077;strokeColor=#82b366;" parent="1" vertex="1">
                    <mxGeometry x="4240" y="1055" width="260" height="150" as="geometry"/>
                </mxCell>
                <mxCell id="207" style="edgeStyle=none;html=1;exitX=1;exitY=0.5;exitDx=0;exitDy=0;fontSize=48;fontColor=#0D0D0D;endArrow=none;endFill=0;strokeWidth=5;fillColor=#e51400;strokeColor=#B20000;" parent="1" source="198" edge="1">
                    <mxGeometry relative="1" as="geometry">
                        <mxPoint x="1160" y="1070" as="targetPoint"/>
                    </mxGeometry>
                </mxCell>
                <mxCell id="198" value="&lt;font color=&quot;#000000&quot;&gt;User_ID&lt;/font&gt;" style="ellipse;whiteSpace=wrap;html=1;fontSize=48;fillColor=#dae8fc;gradientColor=#7ea6e0;strokeColor=#6c8ebf;" parent="1" vertex="1">
                    <mxGeometry x="790" y="990" width="260" height="150" as="geometry"/>
                </mxCell>
                <mxCell id="206" style="edgeStyle=none;html=1;exitX=0;exitY=0.5;exitDx=0;exitDy=0;fontSize=48;fontColor=#0D0D0D;endArrow=none;endFill=0;strokeWidth=5;fillColor=#e51400;strokeColor=#B20000;" parent="1" source="199" edge="1">
                    <mxGeometry relative="1" as="geometry">
                        <mxPoint x="1150" y="980" as="targetPoint"/>
                    </mxGeometry>
                </mxCell>
                <mxCell id="199" value="&lt;font color=&quot;#0d0d0d&quot;&gt;Movie_ID&lt;/font&gt;" style="ellipse;whiteSpace=wrap;html=1;fontSize=48;fillColor=#dae8fc;gradientColor=#7ea6e0;strokeColor=#6c8ebf;" parent="1" vertex="1">
                    <mxGeometry x="1260" y="905" width="260" height="150" as="geometry"/>
                </mxCell>
                <mxCell id="200" value="&lt;font color=&quot;#0d0d0d&quot;&gt;DESCRIPTION&lt;/font&gt;" style="ellipse;whiteSpace=wrap;html=1;fontSize=48;fillColor=#d5e8d4;gradientColor=#97d077;strokeColor=#82b366;" parent="1" vertex="1">
                    <mxGeometry x="-2491" y="685" width="420" height="150" as="geometry"/>
                </mxCell>
                <mxCell id="208" style="edgeStyle=none;html=1;exitX=1;exitY=0.5;exitDx=0;exitDy=0;fontSize=48;fontColor=#0D0D0D;endArrow=none;endFill=0;strokeWidth=5;fillColor=#e51400;strokeColor=#B20000;" parent="1" source="201" edge="1">
                    <mxGeometry relative="1" as="geometry">
                        <mxPoint x="1160" y="850" as="targetPoint"/>
                    </mxGeometry>
                </mxCell>
                <mxCell id="201" value="&lt;font color=&quot;#0d0d0d&quot;&gt;DECSCRI&lt;br&gt;PTION&lt;/font&gt;" style="ellipse;whiteSpace=wrap;html=1;fontSize=48;fillColor=#d5e8d4;gradientColor=#97d077;strokeColor=#82b366;" parent="1" vertex="1">
                    <mxGeometry x="750" y="780" width="320" height="150" as="geometry"/>
                </mxCell>
                <mxCell id="210" style="edgeStyle=none;html=1;exitX=0;exitY=0.5;exitDx=0;exitDy=0;fontSize=48;fontColor=#0D0D0D;endArrow=none;endFill=0;strokeWidth=5;fillColor=#e51400;strokeColor=#B20000;" parent="1" source="202" edge="1">
                    <mxGeometry relative="1" as="geometry">
                        <mxPoint x="1170" y="480" as="targetPoint"/>
                    </mxGeometry>
                </mxCell>
                <mxCell id="202" value="ID" style="ellipse;whiteSpace=wrap;html=1;fontSize=48;fillColor=#f8cecc;gradientColor=#ea6b66;strokeColor=#b85450;" parent="1" vertex="1">
                    <mxGeometry x="1240" y="400" width="260" height="150" as="geometry"/>
                </mxCell>
                <mxCell id="209" style="edgeStyle=none;html=1;exitX=0;exitY=0.5;exitDx=0;exitDy=0;fontSize=48;fontColor=#0D0D0D;endArrow=none;endFill=0;strokeWidth=5;fillColor=#e51400;strokeColor=#B20000;" parent="1" source="203" edge="1">
                    <mxGeometry relative="1" as="geometry">
                        <mxPoint x="1170" y="730" as="targetPoint"/>
                    </mxGeometry>
                </mxCell>
                <mxCell id="203" value="&lt;font color=&quot;#0d0d0d&quot;&gt;NAME&lt;/font&gt;" style="ellipse;whiteSpace=wrap;html=1;fontSize=48;fillColor=#d5e8d4;gradientColor=#97d077;strokeColor=#82b366;" parent="1" vertex="1">
                    <mxGeometry x="1251" y="640" width="260" height="150" as="geometry"/>
                </mxCell>
                <mxCell id="212" style="edgeStyle=none;html=1;exitX=1;exitY=0.5;exitDx=0;exitDy=0;fontSize=48;fontColor=#0D0D0D;endArrow=none;endFill=0;strokeWidth=5;fillColor=#e51400;strokeColor=#B20000;" parent="1" source="211" edge="1">
                    <mxGeometry relative="1" as="geometry">
                        <mxPoint x="1150" y="630" as="targetPoint"/>
                    </mxGeometry>
                </mxCell>
                <mxCell id="211" value="&lt;font color=&quot;#0d0d0d&quot;&gt;Date&lt;/font&gt;" style="ellipse;whiteSpace=wrap;html=1;fontSize=48;fillColor=#d5e8d4;gradientColor=#97d077;strokeColor=#82b366;" parent="1" vertex="1">
                    <mxGeometry x="790" y="550" width="260" height="150" as="geometry"/>
                </mxCell>
                <mxCell id="228" style="edgeStyle=none;html=1;exitX=0;exitY=0;exitDx=0;exitDy=0;fontSize=48;fontColor=#0D0D0D;endArrow=none;endFill=0;strokeWidth=5;fillColor=#e51400;strokeColor=#B20000;" parent="1" source="214" edge="1">
                    <mxGeometry relative="1" as="geometry">
                        <mxPoint x="-1090" y="-1080" as="targetPoint"/>
                    </mxGeometry>
                </mxCell>
                <mxCell id="214" value="&lt;font color=&quot;#000000&quot;&gt;User_ID&lt;/font&gt;" style="ellipse;whiteSpace=wrap;html=1;fontSize=48;fillColor=#dae8fc;gradientColor=#7ea6e0;strokeColor=#6c8ebf;" parent="1" vertex="1">
                    <mxGeometry x="-1080" y="-1020" width="260" height="150" as="geometry"/>
                </mxCell>
                <mxCell id="230" style="edgeStyle=none;html=1;exitX=0;exitY=0;exitDx=0;exitDy=0;fontSize=48;fontColor=#0D0D0D;endArrow=none;endFill=0;strokeWidth=5;fillColor=#e51400;strokeColor=#B20000;" parent="1" source="216" edge="1">
                    <mxGeometry relative="1" as="geometry">
                        <mxPoint x="-830" y="-1170" as="targetPoint"/>
                    </mxGeometry>
                </mxCell>
                <mxCell id="216" value="&lt;font color=&quot;#0d0d0d&quot;&gt;Movie_ID&lt;/font&gt;" style="ellipse;whiteSpace=wrap;html=1;fontSize=48;fillColor=#dae8fc;gradientColor=#7ea6e0;strokeColor=#6c8ebf;" parent="1" vertex="1">
                    <mxGeometry x="-830" y="-1130" width="260" height="150" as="geometry"/>
                </mxCell>
                <mxCell id="231" style="edgeStyle=none;html=1;exitX=1;exitY=1;exitDx=0;exitDy=0;fontSize=48;fontColor=#0D0D0D;endArrow=none;endFill=0;strokeWidth=5;fillColor=#e51400;strokeColor=#B20000;" parent="1" source="220" edge="1">
                    <mxGeometry relative="1" as="geometry">
                        <mxPoint x="-640" y="-1250" as="targetPoint"/>
                    </mxGeometry>
                </mxCell>
                <mxCell id="220" value="ID" style="ellipse;whiteSpace=wrap;html=1;fontSize=48;fillColor=#f8cecc;gradientColor=#ea6b66;strokeColor=#b85450;" parent="1" vertex="1">
                    <mxGeometry x="-910" y="-1480" width="260" height="150" as="geometry"/>
                </mxCell>
                <mxCell id="227" style="edgeStyle=none;html=1;exitX=1;exitY=1;exitDx=0;exitDy=0;fontSize=48;fontColor=#0D0D0D;endArrow=none;endFill=0;strokeWidth=5;fillColor=#e51400;strokeColor=#B20000;" parent="1" source="224" edge="1">
                    <mxGeometry relative="1" as="geometry">
                        <mxPoint x="-980" y="-1140" as="targetPoint"/>
                    </mxGeometry>
                </mxCell>
                <mxCell id="224" value="&lt;font color=&quot;#0d0d0d&quot;&gt;Date&lt;/font&gt;" style="ellipse;whiteSpace=wrap;html=1;fontSize=48;fillColor=#d5e8d4;gradientColor=#97d077;strokeColor=#82b366;" parent="1" vertex="1">
                    <mxGeometry x="-1250" y="-1370" width="260" height="150" as="geometry"/>
                </mxCell>
                <mxCell id="232" style="edgeStyle=none;html=1;exitX=0;exitY=0;exitDx=0;exitDy=0;fontSize=48;fontColor=#0D0D0D;endArrow=none;endFill=0;strokeWidth=5;fillColor=#e51400;strokeColor=#B20000;" parent="1" source="225" edge="1">
                    <mxGeometry relative="1" as="geometry">
                        <mxPoint x="-560" y="-1270" as="targetPoint"/>
                    </mxGeometry>
                </mxCell>
                <mxCell id="225" value="&lt;font color=&quot;#0d0d0d&quot;&gt;TEXT&lt;/font&gt;" style="ellipse;whiteSpace=wrap;html=1;fontSize=48;fillColor=#d5e8d4;gradientColor=#97d077;strokeColor=#82b366;" parent="1" vertex="1">
                    <mxGeometry x="-570" y="-1250" width="260" height="150" as="geometry"/>
                </mxCell>
                <mxCell id="240" value="ID" style="ellipse;whiteSpace=wrap;html=1;fontSize=48;fillColor=#f8cecc;gradientColor=#ea6b66;strokeColor=#b85450;" parent="1" vertex="1">
                    <mxGeometry x="-1930" y="-3260" width="260" height="150" as="geometry"/>
                </mxCell>
                <mxCell id="249" value="&lt;font style=&quot;font-size: 72px ; background-color: rgb(255 , 255 , 255)&quot;&gt;M&lt;/font&gt;" style="text;html=1;strokeColor=none;fillColor=none;align=center;verticalAlign=middle;whiteSpace=wrap;rounded=0;labelBackgroundColor=#0F0F0F;fontSize=48;fontColor=#0D0D0D;" parent="1" vertex="1">
                    <mxGeometry x="2140" y="-770" width="120" height="100" as="geometry"/>
                </mxCell>
                <mxCell id="250" value="&lt;span style=&quot;font-size: 72px ; background-color: rgb(255 , 255 , 255)&quot;&gt;N&lt;/span&gt;" style="text;html=1;strokeColor=none;fillColor=none;align=center;verticalAlign=middle;whiteSpace=wrap;rounded=0;labelBackgroundColor=#0F0F0F;fontSize=48;fontColor=#0D0D0D;" parent="1" vertex="1">
                    <mxGeometry x="-860" y="-1680" width="120" height="100" as="geometry"/>
                </mxCell>
                <mxCell id="253" value="&lt;font style=&quot;font-size: 72px ; background-color: rgb(255 , 255 , 255)&quot;&gt;1&lt;/font&gt;" style="text;html=1;strokeColor=none;fillColor=none;align=center;verticalAlign=middle;whiteSpace=wrap;rounded=0;labelBackgroundColor=#0F0F0F;fontSize=48;fontColor=#0D0D0D;" parent="1" vertex="1">
                    <mxGeometry x="100" y="-2260" width="120" height="100" as="geometry"/>
                </mxCell>
                <mxCell id="254" value="&lt;span style=&quot;font-size: 72px ; background-color: rgb(255 , 255 , 255)&quot;&gt;N&lt;/span&gt;" style="text;html=1;strokeColor=none;fillColor=none;align=center;verticalAlign=middle;whiteSpace=wrap;rounded=0;labelBackgroundColor=#0F0F0F;fontSize=48;fontColor=#0D0D0D;" parent="1" vertex="1">
                    <mxGeometry x="-270" y="-2450" width="120" height="100" as="geometry"/>
                </mxCell>
                <mxCell id="255" value="&lt;font style=&quot;font-size: 72px ; background-color: rgb(255 , 255 , 255)&quot;&gt;1&lt;/font&gt;" style="text;html=1;strokeColor=none;fillColor=none;align=center;verticalAlign=middle;whiteSpace=wrap;rounded=0;labelBackgroundColor=#0F0F0F;fontSize=48;fontColor=#0D0D0D;" parent="1" vertex="1">
                    <mxGeometry x="550" y="-1780" width="120" height="100" as="geometry"/>
                </mxCell>
                <mxCell id="256" value="&lt;font style=&quot;font-size: 72px ; background-color: rgb(255 , 255 , 255)&quot;&gt;1&lt;/font&gt;" style="text;html=1;strokeColor=none;fillColor=none;align=center;verticalAlign=middle;whiteSpace=wrap;rounded=0;labelBackgroundColor=#0F0F0F;fontSize=48;fontColor=#0D0D0D;" parent="1" vertex="1">
                    <mxGeometry x="-1040" y="-1970" width="120" height="100" as="geometry"/>
                </mxCell>
                <mxCell id="257" value="&lt;span style=&quot;font-size: 72px ; background-color: rgb(255 , 255 , 255)&quot;&gt;N&lt;/span&gt;" style="text;html=1;strokeColor=none;fillColor=none;align=center;verticalAlign=middle;whiteSpace=wrap;rounded=0;labelBackgroundColor=#0F0F0F;fontSize=48;fontColor=#0D0D0D;" parent="1" vertex="1">
                    <mxGeometry x="2360" y="-360" width="120" height="100" as="geometry"/>
                </mxCell>
                <mxCell id="259" value="&lt;span style=&quot;font-size: 72px ; background-color: rgb(255 , 255 , 255)&quot;&gt;N&lt;/span&gt;" style="text;html=1;strokeColor=none;fillColor=none;align=center;verticalAlign=middle;whiteSpace=wrap;rounded=0;labelBackgroundColor=#0F0F0F;fontSize=48;fontColor=#0D0D0D;" parent="1" vertex="1">
                    <mxGeometry x="140" y="-1590" width="120" height="100" as="geometry"/>
                </mxCell>
                <mxCell id="260" value="&lt;font style=&quot;font-size: 72px ; background-color: rgb(255 , 255 , 255)&quot;&gt;1&lt;/font&gt;" style="text;html=1;strokeColor=none;fillColor=none;align=center;verticalAlign=middle;whiteSpace=wrap;rounded=0;labelBackgroundColor=#0F0F0F;fontSize=48;fontColor=#0D0D0D;" parent="1" vertex="1">
                    <mxGeometry x="-1750" y="-1940" width="120" height="100" as="geometry"/>
                </mxCell>
                <mxCell id="261" value="&lt;font style=&quot;font-size: 72px ; background-color: rgb(255 , 255 , 255)&quot;&gt;1&lt;/font&gt;" style="text;html=1;strokeColor=none;fillColor=none;align=center;verticalAlign=middle;whiteSpace=wrap;rounded=0;labelBackgroundColor=#0F0F0F;fontSize=48;fontColor=#0D0D0D;" parent="1" vertex="1">
                    <mxGeometry x="-1930" y="-1620" width="120" height="100" as="geometry"/>
                </mxCell>
                <mxCell id="265" value="&lt;span style=&quot;font-size: 72px ; background-color: rgb(255 , 255 , 255)&quot;&gt;N&lt;/span&gt;" style="text;html=1;strokeColor=none;fillColor=none;align=center;verticalAlign=middle;whiteSpace=wrap;rounded=0;labelBackgroundColor=#0F0F0F;fontSize=48;fontColor=#0D0D0D;" parent="1" vertex="1">
                    <mxGeometry x="-2480" y="-290" width="120" height="100" as="geometry"/>
                </mxCell>
                <mxCell id="266" value="&lt;font style=&quot;font-size: 72px ; background-color: rgb(255 , 255 , 255)&quot;&gt;1&lt;/font&gt;" style="text;html=1;strokeColor=none;fillColor=none;align=center;verticalAlign=middle;whiteSpace=wrap;rounded=0;labelBackgroundColor=#0F0F0F;fontSize=48;fontColor=#0D0D0D;" parent="1" vertex="1">
                    <mxGeometry x="-2080" y="-80" width="120" height="100" as="geometry"/>
                </mxCell>
                <mxCell id="267" value="&lt;span style=&quot;font-size: 72px ; background-color: rgb(255 , 255 , 255)&quot;&gt;N&lt;/span&gt;" style="text;html=1;strokeColor=none;fillColor=none;align=center;verticalAlign=middle;whiteSpace=wrap;rounded=0;labelBackgroundColor=#0F0F0F;fontSize=48;fontColor=#0D0D0D;" parent="1" vertex="1">
                    <mxGeometry x="-130" y="-20" width="120" height="100" as="geometry"/>
                </mxCell>
                <mxCell id="268" value="&lt;font style=&quot;font-size: 72px ; background-color: rgb(255 , 255 , 255)&quot;&gt;1&lt;/font&gt;" style="text;html=1;strokeColor=none;fillColor=none;align=center;verticalAlign=middle;whiteSpace=wrap;rounded=0;labelBackgroundColor=#0F0F0F;fontSize=48;fontColor=#0D0D0D;" parent="1" vertex="1">
                    <mxGeometry x="-750" y="-500" width="120" height="100" as="geometry"/>
                </mxCell>
                <mxCell id="269" value="&lt;span style=&quot;font-size: 72px ; background-color: rgb(255 , 255 , 255)&quot;&gt;N&lt;/span&gt;" style="text;html=1;strokeColor=none;fillColor=none;align=center;verticalAlign=middle;whiteSpace=wrap;rounded=0;labelBackgroundColor=#0F0F0F;fontSize=48;fontColor=#0D0D0D;" parent="1" vertex="1">
                    <mxGeometry x="-470" y="-760" width="120" height="100" as="geometry"/>
                </mxCell>
                <mxCell id="271" value="&lt;font style=&quot;font-size: 72px ; background-color: rgb(255 , 255 , 255)&quot;&gt;M&lt;/font&gt;" style="text;html=1;strokeColor=none;fillColor=none;align=center;verticalAlign=middle;whiteSpace=wrap;rounded=0;labelBackgroundColor=#0F0F0F;fontSize=48;fontColor=#0D0D0D;" parent="1" vertex="1">
                    <mxGeometry x="40" y="-335" width="120" height="50" as="geometry"/>
                </mxCell>
                <mxCell id="274" value="&lt;span style=&quot;font-size: 72px ; background-color: rgb(255 , 255 , 255)&quot;&gt;N&lt;/span&gt;" style="text;html=1;strokeColor=none;fillColor=none;align=center;verticalAlign=middle;whiteSpace=wrap;rounded=0;labelBackgroundColor=#0F0F0F;fontSize=48;fontColor=#0D0D0D;" parent="1" vertex="1">
                    <mxGeometry x="1210" y="-470" width="120" height="100" as="geometry"/>
                </mxCell>
                <mxCell id="275" value="&lt;font style=&quot;font-size: 72px ; background-color: rgb(255 , 255 , 255)&quot;&gt;M&lt;/font&gt;" style="text;html=1;strokeColor=none;fillColor=none;align=center;verticalAlign=middle;whiteSpace=wrap;rounded=0;labelBackgroundColor=#0F0F0F;fontSize=48;fontColor=#0D0D0D;" parent="1" vertex="1">
                    <mxGeometry x="1030" y="-800" width="120" height="50" as="geometry"/>
                </mxCell>
                <mxCell id="277" value="&lt;font style=&quot;font-size: 72px ; background-color: rgb(255 , 255 , 255)&quot;&gt;1&lt;/font&gt;" style="text;html=1;strokeColor=none;fillColor=none;align=center;verticalAlign=middle;whiteSpace=wrap;rounded=0;labelBackgroundColor=#0F0F0F;fontSize=48;fontColor=#0D0D0D;" parent="1" vertex="1">
                    <mxGeometry x="210" y="400" width="120" height="100" as="geometry"/>
                </mxCell>
                <mxCell id="280" value="&lt;span style=&quot;font-size: 72px ; background-color: rgb(255 , 255 , 255)&quot;&gt;N&lt;/span&gt;" style="text;html=1;strokeColor=none;fillColor=none;align=center;verticalAlign=middle;whiteSpace=wrap;rounded=0;labelBackgroundColor=#0F0F0F;fontSize=48;fontColor=#0D0D0D;" parent="1" vertex="1">
                    <mxGeometry x="560" y="180" width="120" height="100" as="geometry"/>
                </mxCell>
                <mxCell id="281" value="&lt;span style=&quot;font-size: 72px ; background-color: rgb(255 , 255 , 255)&quot;&gt;N&lt;/span&gt;" style="text;html=1;strokeColor=none;fillColor=none;align=center;verticalAlign=middle;whiteSpace=wrap;rounded=0;labelBackgroundColor=#0F0F0F;fontSize=48;fontColor=#0D0D0D;" parent="1" vertex="1">
                    <mxGeometry x="1760" y="220" width="120" height="100" as="geometry"/>
                </mxCell>
                <mxCell id="282" value="&lt;font style=&quot;font-size: 72px ; background-color: rgb(255 , 255 , 255)&quot;&gt;1&lt;/font&gt;" style="text;html=1;strokeColor=none;fillColor=none;align=center;verticalAlign=middle;whiteSpace=wrap;rounded=0;labelBackgroundColor=#0F0F0F;fontSize=48;fontColor=#0D0D0D;" parent="1" vertex="1">
                    <mxGeometry x="2201" y="450" width="120" height="100" as="geometry"/>
                </mxCell>
                <mxCell id="283" value="&lt;font style=&quot;font-size: 72px ; background-color: rgb(255 , 255 , 255)&quot;&gt;M&lt;/font&gt;" style="text;html=1;strokeColor=none;fillColor=none;align=center;verticalAlign=middle;whiteSpace=wrap;rounded=0;labelBackgroundColor=#0F0F0F;fontSize=48;fontColor=#0D0D0D;" parent="1" vertex="1">
                    <mxGeometry x="1380" y="1590" width="120" height="50" as="geometry"/>
                </mxCell>
                <mxCell id="284" value="&lt;span style=&quot;font-size: 72px ; background-color: rgb(255 , 255 , 255)&quot;&gt;N&lt;/span&gt;" style="text;html=1;strokeColor=none;fillColor=none;align=center;verticalAlign=middle;whiteSpace=wrap;rounded=0;labelBackgroundColor=#0F0F0F;fontSize=48;fontColor=#0D0D0D;" parent="1" vertex="1">
                    <mxGeometry x="850" y="1560" width="120" height="100" as="geometry"/>
                </mxCell>
            </root>
        </mxGraphModel>
    </diagram>
</mxfile>
